<svg width="143" height="36" viewBox="0 0 143 36" fill="none" xmlns="http://www.w3.org/2000/svg">
<path d="M55.12 30.352C53.2213 30.352 51.568 30.064 50.16 29.488C48.7733 28.912 47.504 28.0053 46.352 26.768L49.968 23.12C50.7573 23.952 51.6 24.592 52.496 25.04C53.392 25.4667 54.4053 25.68 55.536 25.68C56.496 25.68 57.232 25.52 57.744 25.2C58.2773 24.8587 58.544 24.4 58.544 23.824C58.544 23.2907 58.352 22.8533 57.968 22.512C57.584 22.1493 57.072 21.84 56.432 21.584C55.8133 21.3067 55.12 21.0507 54.352 20.816C53.6053 20.56 52.848 20.2613 52.08 19.92C51.3333 19.5573 50.64 19.12 50 18.608C49.3813 18.096 48.88 17.456 48.496 16.688C48.112 15.92 47.92 14.9707 47.92 13.84C47.92 12.3893 48.2613 11.152 48.944 10.128C49.648 9.104 50.6187 8.31467 51.856 7.76C53.0933 7.20533 54.5333 6.928 56.176 6.928C57.8187 6.928 59.3333 7.20533 60.72 7.76C62.1067 8.31467 63.248 9.08267 64.144 10.064L60.496 13.68C59.8133 12.9973 59.12 12.4853 58.416 12.144C57.712 11.8027 56.944 11.632 56.112 11.632C55.3227 11.632 54.704 11.7707 54.256 12.048C53.808 12.3253 53.584 12.72 53.584 13.232C53.584 13.744 53.776 14.16 54.16 14.48C54.544 14.8 55.0453 15.088 55.664 15.344C56.304 15.5787 56.9973 15.824 57.744 16.08C58.512 16.336 59.2693 16.6347 60.016 16.976C60.7627 17.3173 61.4453 17.7547 62.064 18.288C62.704 18.8213 63.216 19.4933 63.6 20.304C63.984 21.1147 64.176 22.096 64.176 23.248C64.176 25.5093 63.376 27.2587 61.776 28.496C60.1973 29.7333 57.9787 30.352 55.12 30.352ZM68.8385 30V7.888H74.4065V30H68.8385ZM65.3825 18.992V14.352H77.8625V18.992H65.3825ZM87.2815 30.352C85.5962 30.352 84.0922 30 82.7695 29.296C81.4682 28.5707 80.4335 27.5893 79.6655 26.352C78.8975 25.0933 78.5135 23.6853 78.5135 22.128C78.5135 20.5707 78.8868 19.184 79.6335 17.968C80.4015 16.7307 81.4468 15.76 82.7695 15.056C84.0922 14.3307 85.5855 13.968 87.2495 13.968C88.9135 13.968 90.3962 14.3307 91.6975 15.056C93.0202 15.76 94.0655 16.7307 94.8335 17.968C95.6015 19.184 95.9855 20.5707 95.9855 22.128C95.9855 23.6853 95.6015 25.0933 94.8335 26.352C94.0868 27.5893 93.0522 28.5707 91.7295 29.296C90.4282 30 88.9455 30.352 87.2815 30.352ZM87.2495 25.392C87.8682 25.392 88.4015 25.264 88.8495 25.008C89.3188 24.7307 89.6815 24.3467 89.9375 23.856C90.1935 23.3653 90.3215 22.8 90.3215 22.16C90.3215 21.52 90.1828 20.9653 89.9055 20.496C89.6495 20.0053 89.2975 19.632 88.8495 19.376C88.4015 19.0987 87.8682 18.96 87.2495 18.96C86.6522 18.96 86.1188 19.0987 85.6495 19.376C85.1802 19.6533 84.8175 20.0373 84.5615 20.528C84.3055 20.9973 84.1775 21.552 84.1775 22.192C84.1775 22.8107 84.3055 23.3653 84.5615 23.856C84.8175 24.3467 85.1802 24.7307 85.6495 25.008C86.1188 25.264 86.6522 25.392 87.2495 25.392ZM98.1945 30V14.352H103.763V30H98.1945ZM103.763 21.488L101.266 19.376C101.885 17.6053 102.707 16.272 103.731 15.376C104.755 14.48 106.088 14.032 107.731 14.032C108.477 14.032 109.117 14.128 109.651 14.32C110.205 14.512 110.675 14.8107 111.059 15.216L107.827 19.536C107.656 19.344 107.411 19.1947 107.091 19.088C106.792 18.96 106.451 18.896 106.067 18.896C105.341 18.896 104.776 19.12 104.371 19.568C103.965 19.9947 103.763 20.6347 103.763 21.488ZM119.63 30.352C117.88 30.352 116.334 30.0107 114.99 29.328C113.646 28.624 112.59 27.6533 111.822 26.416C111.054 25.1787 110.67 23.76 110.67 22.16C110.67 20.5813 111.043 19.184 111.79 17.968C112.536 16.7307 113.55 15.76 114.83 15.056C116.131 14.3307 117.592 13.968 119.214 13.968C120.792 13.968 122.19 14.3093 123.406 14.992C124.643 15.6533 125.603 16.5813 126.286 17.776C126.99 18.9493 127.342 20.2933 127.342 21.808C127.342 22.128 127.32 22.4587 127.278 22.8C127.256 23.12 127.192 23.4933 127.086 23.92L113.294 23.984V20.4L124.878 20.304L122.382 21.872C122.36 20.9973 122.232 20.2827 121.998 19.728C121.763 19.152 121.422 18.7147 120.974 18.416C120.526 18.1173 119.96 17.968 119.278 17.968C118.574 17.968 117.966 18.1387 117.454 18.48C116.942 18.8213 116.547 19.3013 116.27 19.92C115.992 20.5387 115.854 21.2853 115.854 22.16C115.854 23.056 116.003 23.824 116.302 24.464C116.6 25.0827 117.027 25.552 117.582 25.872C118.136 26.192 118.819 26.352 119.63 26.352C120.398 26.352 121.07 26.224 121.646 25.968C122.243 25.712 122.776 25.3173 123.246 24.784L126.158 27.696C125.39 28.5707 124.451 29.232 123.342 29.68C122.254 30.128 121.016 30.352 119.63 30.352ZM135.397 30.448C134.437 30.448 133.487 30.32 132.549 30.064C131.631 29.808 130.767 29.4667 129.957 29.04C129.167 28.592 128.495 28.08 127.941 27.504L130.981 24.4C131.493 24.9333 132.101 25.3493 132.805 25.648C133.53 25.9467 134.298 26.096 135.109 26.096C135.578 26.096 135.93 26.032 136.165 25.904C136.421 25.776 136.549 25.5947 136.549 25.36C136.549 25.0187 136.367 24.7627 136.005 24.592C135.663 24.4 135.205 24.24 134.629 24.112C134.074 23.9627 133.487 23.792 132.869 23.6C132.25 23.3867 131.653 23.1093 131.077 22.768C130.501 22.4267 130.031 21.9467 129.669 21.328C129.327 20.7093 129.157 19.92 129.157 18.96C129.157 17.9573 129.423 17.0827 129.957 16.336C130.511 15.568 131.279 14.9707 132.261 14.544C133.242 14.096 134.394 13.872 135.717 13.872C137.061 13.872 138.341 14.1067 139.557 14.576C140.773 15.024 141.754 15.7067 142.501 16.624L139.429 19.728C138.917 19.152 138.351 18.7573 137.733 18.544C137.114 18.3093 136.549 18.192 136.036 18.192C135.546 18.192 135.194 18.2667 134.981 18.416C134.767 18.544 134.661 18.7253 134.661 18.96C134.661 19.2373 134.831 19.4613 135.173 19.632C135.535 19.8027 135.994 19.9627 136.549 20.112C137.125 20.24 137.711 20.4107 138.309 20.624C138.927 20.8373 139.514 21.136 140.069 21.52C140.645 21.8827 141.103 22.3733 141.445 22.992C141.807 23.6107 141.989 24.4107 141.989 25.392C141.989 26.9493 141.391 28.1867 140.197 29.104C139.002 30 137.402 30.448 135.397 30.448Z" fill="black"/>
<path fill-rule="evenodd" clip-rule="evenodd" d="M18 0C8.05888 0 0 8.05888 0 18C0 27.9411 8.05888 36 18 36C27.9411 36 36 27.9411 36 18C36 8.05888 27.9411 0 18 0ZM19.8611 27.7083H20.038C24.5572 27.7083 26.4914 25.7741 26.4822 21.255V17.1391C26.4822 17.0669 26.4707 16.997 26.4494 16.9312C26.9359 16.2159 27.1519 15.3493 27.0599 14.4442L26.8032 11.8958C26.4274 9.1275 25.1716 8 22.4766 8H19.7174H19.6807H15.4366L15.4181 8.00025L15.3999 8H12.6041C9.90909 8 8.65325 9.1275 8.26825 11.9233L8.02075 14.4442C7.92712 15.3649 8.1523 16.2458 8.65671 16.9681C8.64234 17.0229 8.63468 17.0802 8.63468 17.1391V21.255C8.63468 25.7741 10.5597 27.7083 15.088 27.7083H15.2653C15.2674 27.7083 15.2695 27.7083 15.2716 27.7083H19.8549C19.857 27.7083 19.8591 27.7083 19.8611 27.7083ZM14.5841 26.3247C11.2189 26.2054 10.0097 24.831 10.0097 21.255V18.1418C10.5296 18.4034 11.1153 18.5417 11.7333 18.5417C12.9042 18.5417 13.9953 17.9464 14.6913 17.0437C14.7802 17.1759 14.8789 17.3027 14.9874 17.4233C15.6382 18.1475 16.5549 18.5417 17.5632 18.5417C18.5716 18.5417 19.4882 18.1475 20.1666 17.4233C20.2613 17.3179 20.3487 17.2078 20.4285 17.0936C21.1259 17.9683 22.1982 18.5417 23.3474 18.5417C23.9798 18.5417 24.5783 18.3969 25.1072 18.1233V21.255C25.1072 24.8276 23.9002 26.2028 20.5424 26.3244V24.7292C20.5424 22.8042 19.4882 21.75 17.5632 21.75C15.6382 21.75 14.5841 22.8042 14.5841 24.7292V26.3247ZM19.1674 26.3333H15.9591V24.7292C15.9591 23.5742 16.4082 23.125 17.5632 23.125C18.7182 23.125 19.1674 23.5742 19.1674 24.7292V26.3333ZM19.6367 15.2039C19.6183 15.6901 19.4381 16.1433 19.1216 16.4975C18.3424 17.3592 16.7841 17.3592 16.0049 16.4975C15.6199 16.0758 15.4366 15.4983 15.5007 14.8842L16.0507 9.375H19.0546L19.6349 15.1867L19.6367 15.2039ZM21.0366 15.2294C21.2418 16.295 22.2535 17.1667 23.3474 17.1667C24.0441 17.1667 24.6674 16.9008 25.1166 16.415C25.5566 15.9292 25.7582 15.2783 25.6941 14.5817L25.4374 12.0608C25.1532 9.98917 24.4841 9.375 22.4766 9.375H20.4803L21.0191 14.7467C21.0353 14.9095 21.0411 15.0706 21.0366 15.2294ZM12.6041 9.375C10.5966 9.375 9.92742 9.98 9.63409 12.0792L9.38659 14.5817C9.31325 15.2783 9.52409 15.9292 9.96409 16.415C10.4041 16.9008 11.0274 17.1667 11.7333 17.1667C12.8883 17.1667 13.9608 16.195 14.0708 15.0492L14.6391 9.375H12.6041Z" fill="black"/>
</svg>
